<?xml version="1.0" standalone="no"?>
<svg xmlns:xlink="http://www.w3.org/1999/xlink" id="wave" style="transform:rotate(0deg); transition: 0.3s" viewBox="0 0 1440 100" version="1.1" xmlns="http://www.w3.org/2000/svg"><defs><linearGradient id="sw-gradient-0" x1="0" x2="0" y1="1" y2="0"><stop stop-color="rgba(141, 110, 99, 1)" offset="0%"/><stop stop-color="rgba(141, 110, 99, 1)" offset="100%"/></linearGradient></defs><path style="transform:translate(0, 0px); opacity:1" fill="url(#sw-gradient-0)" d="M0,0L48,5C96,10,192,20,288,21.7C384,23,480,17,576,16.7C672,17,768,23,864,21.7C960,20,1056,10,1152,16.7C1248,23,1344,47,1440,48.3C1536,50,1632,30,1728,33.3C1824,37,1920,63,2016,73.3C2112,83,2208,77,2304,68.3C2400,60,2496,50,2592,53.3C2688,57,2784,73,2880,75C2976,77,3072,63,3168,51.7C3264,40,3360,30,3456,35C3552,40,3648,60,3744,56.7C3840,53,3936,27,4032,16.7C4128,7,4224,13,4320,25C4416,37,4512,53,4608,51.7C4704,50,4800,30,4896,31.7C4992,33,5088,57,5184,61.7C5280,67,5376,53,5472,53.3C5568,53,5664,67,5760,70C5856,73,5952,67,6048,53.3C6144,40,6240,20,6336,16.7C6432,13,6528,27,6624,30C6720,33,6816,27,6864,23.3L6912,20L6912,100L6864,100C6816,100,6720,100,6624,100C6528,100,6432,100,6336,100C6240,100,6144,100,6048,100C5952,100,5856,100,5760,100C5664,100,5568,100,5472,100C5376,100,5280,100,5184,100C5088,100,4992,100,4896,100C4800,100,4704,100,4608,100C4512,100,4416,100,4320,100C4224,100,4128,100,4032,100C3936,100,3840,100,3744,100C3648,100,3552,100,3456,100C3360,100,3264,100,3168,100C3072,100,2976,100,2880,100C2784,100,2688,100,2592,100C2496,100,2400,100,2304,100C2208,100,2112,100,2016,100C1920,100,1824,100,1728,100C1632,100,1536,100,1440,100C1344,100,1248,100,1152,100C1056,100,960,100,864,100C768,100,672,100,576,100C480,100,384,100,288,100C192,100,96,100,48,100L0,100Z"/></svg>